<svg width="114" height="37" viewBox="0 0 114 37" fill="none" xmlns="http://www.w3.org/2000/svg">
<g clip-path="url(#clip0_2_2655)">
<circle cx="12.0143" cy="16.0143" r="12.0143" fill="#3575E2" fill-opacity="0.4"/>
<circle cx="16.9857" cy="20.9857" r="12.0143" fill="#3575E2"/>
<path d="M47.216 26.788C45.792 26.788 44.608 26.428 43.664 25.708C42.72 24.988 42.168 24.012 42.008 22.78H44.072C44.2 23.404 44.528 23.948 45.056 24.412C45.6 24.86 46.328 25.084 47.24 25.084C48.088 25.084 48.712 24.908 49.112 24.556C49.512 24.188 49.712 23.756 49.712 23.26C49.712 22.54 49.448 22.06 48.92 21.82C48.408 21.58 47.68 21.364 46.736 21.172C46.096 21.044 45.456 20.86 44.816 20.62C44.176 20.38 43.64 20.044 43.208 19.612C42.776 19.164 42.56 18.58 42.56 17.86C42.56 16.82 42.944 15.972 43.712 15.316C44.496 14.644 45.552 14.308 46.88 14.308C48.144 14.308 49.176 14.628 49.976 15.268C50.792 15.892 51.264 16.788 51.392 17.956H49.4C49.32 17.348 49.056 16.876 48.608 16.54C48.176 16.188 47.592 16.012 46.856 16.012C46.136 16.012 45.576 16.164 45.176 16.468C44.792 16.772 44.6 17.172 44.6 17.668C44.6 18.148 44.848 18.524 45.344 18.796C45.856 19.068 46.544 19.3 47.408 19.492C48.144 19.652 48.84 19.852 49.496 20.092C50.168 20.316 50.712 20.66 51.128 21.124C51.56 21.572 51.776 22.228 51.776 23.092C51.792 24.164 51.384 25.052 50.552 25.756C49.736 26.444 48.624 26.788 47.216 26.788ZM60.008 26.788C58.872 26.788 57.864 26.532 56.984 26.02C56.104 25.492 55.408 24.764 54.896 23.836C54.4 22.908 54.152 21.812 54.152 20.548C54.152 19.3 54.4 18.212 54.896 17.284C55.392 16.34 56.08 15.612 56.96 15.1C57.856 14.572 58.888 14.308 60.056 14.308C61.208 14.308 62.2 14.572 63.032 15.1C63.88 15.612 64.528 16.292 64.976 17.14C65.424 17.988 65.648 18.9 65.648 19.876C65.648 20.052 65.64 20.228 65.624 20.404C65.624 20.58 65.624 20.78 65.624 21.004H56.144C56.192 21.916 56.4 22.676 56.768 23.284C57.152 23.876 57.624 24.324 58.184 24.628C58.76 24.932 59.368 25.084 60.008 25.084C60.84 25.084 61.536 24.892 62.096 24.508C62.656 24.124 63.064 23.604 63.32 22.948H65.312C64.992 24.052 64.376 24.972 63.464 25.708C62.568 26.428 61.416 26.788 60.008 26.788ZM60.008 16.012C59.048 16.012 58.192 16.308 57.44 16.9C56.704 17.476 56.28 18.324 56.168 19.444H63.656C63.608 18.372 63.24 17.532 62.552 16.924C61.864 16.316 61.016 16.012 60.008 16.012ZM68.3201 26.5V14.596H70.1441L70.3121 16.876C70.6801 16.092 71.2401 15.468 71.9921 15.004C72.7441 14.54 73.6721 14.308 74.7761 14.308V16.42H74.2241C73.5201 16.42 72.8721 16.548 72.2801 16.804C71.6881 17.044 71.2161 17.46 70.8641 18.052C70.5121 18.644 70.3361 19.46 70.3361 20.5V26.5H68.3201ZM80.9988 26.788C80.0068 26.788 79.1828 26.62 78.5268 26.284C77.8708 25.948 77.3828 25.5 77.0628 24.94C76.7428 24.38 76.5828 23.772 76.5828 23.116C76.5828 21.9 77.0468 20.964 77.9748 20.308C78.9028 19.652 80.1668 19.324 81.7668 19.324H84.9828V19.18C84.9828 18.14 84.7108 17.356 84.1668 16.828C83.6228 16.284 82.8948 16.012 81.9828 16.012C81.1988 16.012 80.5188 16.212 79.9428 16.612C79.3828 16.996 79.0308 17.564 78.8868 18.316H76.8228C76.9028 17.452 77.1908 16.724 77.6868 16.132C78.1988 15.54 78.8308 15.092 79.5828 14.788C80.3348 14.468 81.1348 14.308 81.9828 14.308C83.6468 14.308 84.8948 14.756 85.7268 15.652C86.5748 16.532 86.9988 17.708 86.9988 19.18V26.5H85.1988L85.0788 24.364C84.7428 25.036 84.2468 25.612 83.5908 26.092C82.9508 26.556 82.0868 26.788 80.9988 26.788ZM81.3108 25.084C82.0788 25.084 82.7348 24.884 83.2788 24.484C83.8388 24.084 84.2628 23.564 84.5508 22.924C84.8388 22.284 84.9828 21.612 84.9828 20.908V20.884H81.9348C80.7508 20.884 79.9108 21.092 79.4148 21.508C78.9348 21.908 78.6948 22.412 78.6948 23.02C78.6948 23.644 78.9188 24.148 79.3668 24.532C79.8308 24.9 80.4788 25.084 81.3108 25.084ZM94.5832 26.788C93.1592 26.788 91.9752 26.428 91.0312 25.708C90.0872 24.988 89.5352 24.012 89.3752 22.78H91.4392C91.5672 23.404 91.8952 23.948 92.4232 24.412C92.9672 24.86 93.6952 25.084 94.6072 25.084C95.4552 25.084 96.0792 24.908 96.4792 24.556C96.8792 24.188 97.0792 23.756 97.0792 23.26C97.0792 22.54 96.8152 22.06 96.2872 21.82C95.7752 21.58 95.0472 21.364 94.1032 21.172C93.4632 21.044 92.8232 20.86 92.1832 20.62C91.5432 20.38 91.0072 20.044 90.5752 19.612C90.1432 19.164 89.9272 18.58 89.9272 17.86C89.9272 16.82 90.3112 15.972 91.0792 15.316C91.8632 14.644 92.9192 14.308 94.2472 14.308C95.5112 14.308 96.5432 14.628 97.3432 15.268C98.1592 15.892 98.6312 16.788 98.7592 17.956H96.7672C96.6872 17.348 96.4232 16.876 95.9752 16.54C95.5432 16.188 94.9592 16.012 94.2232 16.012C93.5032 16.012 92.9432 16.164 92.5432 16.468C92.1592 16.772 91.9672 17.172 91.9672 17.668C91.9672 18.148 92.2152 18.524 92.7112 18.796C93.2232 19.068 93.9112 19.3 94.7752 19.492C95.5112 19.652 96.2072 19.852 96.8632 20.092C97.5352 20.316 98.0792 20.66 98.4952 21.124C98.9272 21.572 99.1432 22.228 99.1432 23.092C99.1592 24.164 98.7512 25.052 97.9192 25.756C97.1032 26.444 95.9912 26.788 94.5832 26.788ZM105.983 26.788C104.991 26.788 104.167 26.62 103.511 26.284C102.855 25.948 102.367 25.5 102.047 24.94C101.727 24.38 101.567 23.772 101.567 23.116C101.567 21.9 102.031 20.964 102.959 20.308C103.887 19.652 105.151 19.324 106.751 19.324H109.967V19.18C109.967 18.14 109.695 17.356 109.151 16.828C108.607 16.284 107.879 16.012 106.967 16.012C106.183 16.012 105.503 16.212 104.927 16.612C104.367 16.996 104.015 17.564 103.871 18.316H101.807C101.887 17.452 102.175 16.724 102.671 16.132C103.183 15.54 103.815 15.092 104.567 14.788C105.319 14.468 106.119 14.308 106.967 14.308C108.631 14.308 109.879 14.756 110.711 15.652C111.559 16.532 111.983 17.708 111.983 19.18V26.5H110.183L110.063 24.364C109.727 25.036 109.231 25.612 108.575 26.092C107.935 26.556 107.071 26.788 105.983 26.788ZM106.295 25.084C107.063 25.084 107.719 24.884 108.263 24.484C108.823 24.084 109.247 23.564 109.535 22.924C109.823 22.284 109.967 21.612 109.967 20.908V20.884H106.919C105.735 20.884 104.895 21.092 104.399 21.508C103.919 21.908 103.679 22.412 103.679 23.02C103.679 23.644 103.903 24.148 104.351 24.532C104.815 24.9 105.463 25.084 106.295 25.084Z" fill="#141414"/>
</g>
<defs>
<clipPath id="clip0_2_2655">
<rect width="114" height="36" fill="white" transform="translate(0 0.5)"/>
</clipPath>
</defs>
</svg>
